# xmcd CD database file
#
# Track frame offsets:
#	150
#	22900
#	44347
#	71325
#	94682
#	113847
#	135027
#	161640
#	178665
#	204605
#	234602
#
# Disc length: 3449 seconds
#
# Revision: 1
# Processed by: cddbd v1.5.2PL0 Copyright (c) Steve Scherf et al.
# Submitted via: CDex 1.70beta2
#
DISCID=870d770b
DTITLE=中島 みゆき - パラダイスカフェ
DYEAR=1900
DGENRE=JPop
TTITLE0=旅人のうた
TTITLE1=伝説
TTITLE2=永遠の嘘をついてくれ
TTITLE3=Alone, Please
TTITLE4=それは愛ではない
TTITLE5=なつかない猫
TTITLE6=Single Bar
TTITLE7=蒼い時代
TTITLE8=たかが愛
TTITLE9=阿壇の木の下で
TTITLE10=パラダイス・カフェ
EXTD=
EXTT0=
EXTT1=
EXTT2=
EXTT3=
EXTT4=
EXTT5=
EXTT6=
EXTT7=
EXTT8=
EXTT9=
EXTT10=
PLAYORDER=
